<svg width="42" height="42" viewBox="0 0 42 42" fill="none" xmlns="http://www.w3.org/2000/svg">
<path fill-rule="evenodd" clip-rule="evenodd" d="M7.38819 34.6118C5.77082 32.9944 5.30682 30.5273 5.81404 27.2902C3.16641 25.3599 1.75 23.2873 1.75 21C1.75 18.7127 3.16641 16.6401 5.81404 14.7098C5.30682 11.4727 5.77082 9.00557 7.38819 7.38819C9.00557 5.77082 11.4727 5.30682 14.7098 5.81404C16.6401 3.16641 18.7127 1.75 21 1.75C23.2873 1.75 25.3599 3.16641 27.2902 5.81404C30.5273 5.30682 32.9944 5.77082 34.6118 7.38819C36.2292 9.00557 36.6932 11.4727 36.186 14.7098C38.8336 16.6401 40.25 18.7127 40.25 21C40.25 23.2873 38.8336 25.3599 36.186 27.2902C36.6932 30.5273 36.2292 32.9944 34.6118 34.6118C32.9944 36.2292 30.5273 36.6932 27.2902 36.186C25.3599 38.8336 23.2873 40.25 21 40.25C18.7127 40.25 16.6401 38.8336 14.7098 36.186C11.4727 36.6932 9.00557 36.2292 7.38819 34.6118ZM15.142 32.5465C15.8524 32.3943 16.5829 32.6969 16.9776 33.3068C18.519 35.6882 19.8934 36.75 21 36.75C22.1066 36.75 23.481 35.6882 25.0224 33.3068C25.4171 32.6969 26.1476 32.3943 26.858 32.5465C29.6318 33.1405 31.3544 32.9194 32.1369 32.1369C32.9194 31.3544 33.1405 29.6318 32.5465 26.858C32.3943 26.1476 32.6969 25.4171 33.3068 25.0224C35.6882 23.481 36.75 22.1066 36.75 21C36.75 19.8934 35.6882 18.519 33.3068 16.9776C32.6969 16.5829 32.3943 15.8524 32.5465 15.142C33.1405 12.3682 32.9194 10.6456 32.1369 9.86307C31.3544 9.08055 29.6318 8.85948 26.858 9.45353C26.1476 9.60566 25.4171 9.30308 25.0224 8.69319C23.481 6.31176 22.1066 5.25 21 5.25C19.8934 5.25 18.519 6.31176 16.9776 8.69319C16.5829 9.30308 15.8524 9.60566 15.142 9.45353C12.3682 8.85948 10.6456 9.08055 9.86307 9.86307C9.08055 10.6456 8.85948 12.3682 9.45353 15.142C9.60566 15.8524 9.30308 16.5829 8.69319 16.9776C6.31176 18.519 5.25 19.8934 5.25 21C5.25 22.1066 6.31176 23.481 8.69319 25.0224C9.30308 25.4171 9.60566 26.1476 9.45353 26.858C8.85948 29.6318 9.08055 31.3544 9.86307 32.1369C10.6456 32.9194 12.3682 33.1405 15.142 32.5465ZM19.25 22.0251L26.7626 14.5126L29.2374 16.9874L19.25 26.9749L12.7626 20.4874L15.2374 18.0126L19.25 22.0251Z" fill="#0FA4E4"/>
</svg>
