<svg width="38" height="36" viewBox="0 0 38 36" fill="none" xmlns="http://www.w3.org/2000/svg">
<path d="M4.65533 34H32.9447C33.4041 33.9999 33.8557 33.879 34.2553 33.6492C34.6549 33.4193 34.9888 33.0884 35.2243 32.6887C35.4599 32.2889 35.5891 31.8341 35.5993 31.3686C35.6096 30.9032 35.5004 30.443 35.2826 30.033L21.1388 3.4154C20.1354 1.5282 17.4646 1.5282 16.4612 3.4154L2.31739 30.033C2.09958 30.443 1.99044 30.9032 2.00066 31.3686C2.01087 31.8341 2.14008 32.2889 2.37566 32.6887C2.61124 33.0884 2.94513 33.4193 3.34471 33.6492C3.74428 33.879 4.19587 33.9999 4.65533 34V34Z" stroke="#E40F0F" stroke-width="3" stroke-linecap="round" stroke-linejoin="round"/>
<path d="M18.0005 12.8835L18.8006 22.7999L19.5992 12.8876C19.6041 12.8242 19.5868 12.761 19.5484 12.7016C19.51 12.6423 19.4512 12.5881 19.3757 12.5425C19.3001 12.4968 19.2094 12.4607 19.1091 12.4361C19.0088 12.4116 18.901 12.3993 18.7922 12.3999V12.3999C18.6853 12.4005 18.5798 12.4136 18.4817 12.4384C18.3837 12.4632 18.2951 12.4992 18.2213 12.5443C18.1475 12.5894 18.09 12.6426 18.0521 12.7009C18.0141 12.7592 17.9966 12.8213 18.0005 12.8835V12.8835Z" stroke="#E40F0F" stroke-width="3" stroke-linecap="round" stroke-linejoin="round"/>
<path d="M18.8 29.9998C18.4835 29.9998 18.1742 29.906 17.911 29.7302C17.6479 29.5543 17.4428 29.3045 17.3217 29.0121C17.2006 28.7197 17.169 28.398 17.2307 28.0877C17.2924 27.7773 17.4448 27.4922 17.6686 27.2684C17.8923 27.0447 18.1774 26.8923 18.4878 26.8305C18.7982 26.7688 19.1199 26.8005 19.4122 26.9216C19.7046 27.0427 19.9545 27.2478 20.1303 27.5109C20.3061 27.774 20.4 28.0834 20.4 28.3998C20.4 28.8242 20.2314 29.2311 19.9313 29.5312C19.6313 29.8312 19.2243 29.9998 18.8 29.9998Z" fill="#E40F0F"/>
</svg>
